<svg xmlns="http://www.w3.org/2000/svg" viewBox="0 0 24 24" fill="none" stroke="currentColor" stroke-width="1.6" stroke-linecap="round" stroke-linejoin="round">
  <path d="M12 2c-5.52 0-10 4.48-10 10 0 4.42 2.87 8.17 6.84 9.49.5.09.68-.22.68-.48 0-.24-.01-.86-.01-1.69-2.78.6-3.37-1.34-3.37-1.34-.45-1.15-1.11-1.46-1.11-1.46-.91-.62.07-.61.07-.61 1.01.07 1.54 1.03 1.54 1.03.9 1.54 2.36 1.1 2.94.84.09-.65.35-1.1.64-1.36-2.22-.25-4.56-1.11-4.56-4.95 0-1.09.39-1.98 1.03-2.68-.1-.25-.45-1.27.1-2.65 0 0 .84-.27 2.75 1.02A9.6 9.6 0 0 1 12 6.8c.85 0 1.71.11 2.51.33 1.91-1.29 2.75-1.02 2.75-1.02.55 1.38.2 2.4.1 2.65.64.7 1.03 1.59 1.03 2.68 0 3.85-2.34 4.7-4.57 4.95.36.31.68.92.68 1.85 0 1.34-.01 2.42-.01 2.75 0 .26.18.58.69.48A10 10 0 0 0 22 12c0-5.52-4.48-10-10-10z"/>
</svg>
