<?xml version="1.0" encoding="UTF-8"?>
<svg data-bbox="0 0 487 161" xmlns="http://www.w3.org/2000/svg" viewBox="0 0 487 161" height="161" width="487" data-type="color">
    <g>
        <path fill="#000000" d="M60 35c0 5.523 4.477 10 10 10s10-4.477 10-10-4.477-10-10-10-10 4.477-10 10" data-color="1"/>
        <path fill="#000000" d="m46 32-15.5 6v11.5H24V63h6v31c0 11.5 5.205 15.735 9 17 3 1 10 1 14.5-1V94L49 95.5c-2.546.849-3 0-3-1.5V63h7.5V49.5H46z" data-color="1"/>
        <path fill="#000000" d="M300 112c17.121 0 31-13.88 31-31s-13.879-31-31-31-31 13.88-31 31 13.879 31 31 31m0-15c8.836 0 16-7.163 16-16s-7.164-16-16-16-16 7.163-16 16 7.163 16 16 16" clip-rule="evenodd" fill-rule="evenodd" data-color="1"/>
        <path fill="#000000" d="M265 24h-16v88h16z" data-color="1"/>
        <path fill="#000000" d="M78 49H62v62h16z" data-color="1"/>
        <path fill="#000000" d="M382 50h15v62h-15z" data-color="1"/>
        <path fill="#000000" d="M366 112a30.86 30.86 0 0 0 16-4.443c8.989-5.427 15-15.29 15-26.557s-6.011-21.13-15-26.557A30.86 30.86 0 0 0 366 50c-17.121 0-31 13.88-31 31s13.879 31 31 31m16-31c0 8.837-7.164 16-16 16s-16-7.163-16-16 7.163-16 16-16 16 7.163 16 16" clip-rule="evenodd" fill-rule="evenodd" data-color="1"/>
        <path fill="#000000" d="M151 49c0-8.836 7.163-16 16-16h62c8.837 0 16 7.163 16 16v62c0 8.837-7.163 16-16 16h-62c-8.837 0-16-7.163-16-16z" data-color="1"/>
        <path fill="#ffffff" d="M214 49h15v62h-15z" data-color="2"/>
        <path fill="#ffffff" d="M198 111c17.121 0 31-13.88 31-31s-13.879-31-31-31-31 13.88-31 31 13.879 31 31 31m16-31c0 8.837-7.163 16-16 16s-16-7.163-16-16 7.163-16 16-16 16 7.163 16 16" clip-rule="evenodd" fill-rule="evenodd" data-color="2"/>
        <path fill="#000000" d="M448 24h15v88h-15z" data-color="1"/>
        <path fill="#000000" d="M432 112a30.86 30.86 0 0 0 16-4.443c8.989-5.427 15-15.29 15-26.557s-6.011-21.13-15-26.557A30.86 30.86 0 0 0 432 50c-17.121 0-31 13.88-31 31s13.879 31 31 31m16-31c0 8.837-7.164 16-16 16s-16-7.163-16-16 7.163-16 16-16 16 7.163 16 16" clip-rule="evenodd" fill-rule="evenodd" data-color="1"/>
        <path fill="#000000" d="M100 137H85V49h15z" data-color="1"/>
        <path fill="#000000" d="M116 49a30.86 30.86 0 0 0-16 4.443C91.01 58.87 85 68.733 85 80s6.01 21.13 15 26.557A30.86 30.86 0 0 0 116 111c17.121 0 31-13.88 31-31s-13.879-31-31-31m-16 31c0-8.837 7.163-16 16-16s16 7.163 16 16-7.163 16-16 16-16-7.163-16-16" clip-rule="evenodd" fill-rule="evenodd" data-color="1"/>
        <path fill="#ffffff" d="M32 0C16 0 0 16 0 32v97c0 16 16 32 32 32h423c17 0 32-16 32-32V32c0-16-16-32-32-32zm38 45c-5.523 0-10-4.477-10-10s4.477-10 10-10 10 4.477 10 10-4.477 10-10 10m-39.5-7L46 32v17.5h7.5V63H46v31c0 1.5.454 2.349 3 1.5l4.5-1.5v16c-4.5 2-11.5 2-14.5 1-3.795-1.265-9-5.5-9-17V63h-6V49.5h6.5zM331 81c0 17.12-13.879 31-31 31s-31-13.88-31-31 13.879-31 31-31 31 13.88 31 31m-66-57h-16v88h16zM78 49H62v62h16zm304 1h15v62h-15v-4.443A30.86 30.86 0 0 1 366 112c-17.121 0-31-13.88-31-31s13.879-31 31-31a30.86 30.86 0 0 1 16 4.443zM229 33h-62c-8.837 0-16 7.163-16 16v62c0 8.837 7.163 16 16 16h62c8.837 0 16-7.163 16-16V49c0-8.836-7.163-16-16-16m219-9h15v88h-15v-4.443A30.86 30.86 0 0 1 432 112c-17.121 0-31-13.88-31-31s13.879-31 31-31a30.86 30.86 0 0 1 16 4.443zM100 137H85V49h15v4.443A30.86 30.86 0 0 1 116 49c17.121 0 31 13.88 31 31s-13.879 31-31 31a30.86 30.86 0 0 1-16-4.443z" clip-rule="evenodd" fill-rule="evenodd" data-color="2"/>
        <path fill="#ffffff" d="M116 64c-8.837 0-16 7.163-16 16s7.163 16 16 16 16-7.163 16-16-7.163-16-16-16" data-color="2"/>
        <path fill="#ffffff" d="M300 97c8.836 0 16-7.163 16-16s-7.164-16-16-16-16 7.163-16 16 7.163 16 16 16" data-color="2"/>
        <path fill="#ffffff" d="M366 97c8.836 0 16-7.163 16-16s-7.164-16-16-16-16 7.163-16 16 7.163 16 16 16" data-color="2"/>
        <path fill="#ffffff" d="M432 97c8.836 0 16-7.163 16-16s-7.164-16-16-16-16 7.163-16 16 7.163 16 16 16" data-color="2"/>
    </g>
</svg>
